<svg width="26" height="32" viewBox="0 0 26 32" fill="none" xmlns="http://www.w3.org/2000/svg">
<g filter="url(#filter0_d_525_132)">
<path d="M13.02 3.41C9.71 3.41 7.02 6.1 7.02 9.41V12.3C7.02 12.91 6.76 13.84 6.45 14.36L5.3 16.27C4.59 17.45 5.08 18.76 6.38 19.2C10.69 20.64 15.34 20.64 19.65 19.2C20.86 18.8 21.39 17.37 20.73 16.27L19.58 14.36C19.28 13.84 19.02 12.91 19.02 12.3V9.41C19.02 6.11 16.32 3.41 13.02 3.41Z" stroke="#292D32" stroke-width="1.5" stroke-miterlimit="10" stroke-linecap="round"/>
<path d="M14.87 3.7C14.56 3.61 14.24 3.54 13.91 3.5C12.95 3.38 12.03 3.45 11.17 3.7C11.46 2.96 12.18 2.44 13.02 2.44C13.86 2.44 14.58 2.96 14.87 3.7Z" stroke="#292D32" stroke-width="1.5" stroke-miterlimit="10" stroke-linecap="round" stroke-linejoin="round"/>
<path d="M16.02 19.56C16.02 21.21 14.67 22.56 13.02 22.56C12.2 22.56 11.44 22.22 10.9 21.68C10.36 21.14 10.02 20.38 10.02 19.56" stroke="#292D32" stroke-width="1.5" stroke-miterlimit="10"/>
</g>
<defs>
<filter id="filter0_d_525_132" x="0.223915" y="1.69" width="25.5428" height="29.62" filterUnits="userSpaceOnUse" color-interpolation-filters="sRGB">
<feFlood flood-opacity="0" result="BackgroundImageFix"/>
<feColorMatrix in="SourceAlpha" type="matrix" values="0 0 0 0 0 0 0 0 0 0 0 0 0 0 0 0 0 0 127 0" result="hardAlpha"/>
<feOffset dy="4"/>
<feGaussianBlur stdDeviation="2"/>
<feComposite in2="hardAlpha" operator="out"/>
<feColorMatrix type="matrix" values="0 0 0 0 0 0 0 0 0 0 0 0 0 0 0 0 0 0 0.25 0"/>
<feBlend mode="normal" in2="BackgroundImageFix" result="effect1_dropShadow_525_132"/>
<feBlend mode="normal" in="SourceGraphic" in2="effect1_dropShadow_525_132" result="shape"/>
</filter>
</defs>
</svg>
